<?xml version="1.0" encoding="UTF-8" standalone="no"?>
<!DOCTYPE svg PUBLIC "-//W3C//DTD SVG 1.1//EN" "http://www.w3.org/Graphics/SVG/1.1/DTD/svg11.dtd">
<svg width="100%" height="100%" viewBox="0 0 800 800" version="1.1" xmlns="http://www.w3.org/2000/svg" xmlns:xlink="http://www.w3.org/1999/xlink" xml:space="preserve" xmlns:serif="http://www.serif.com/" style="fill-rule:evenodd;clip-rule:evenodd;stroke-linejoin:round;stroke-miterlimit:2;">
    <g transform="matrix(0.978441,0,0,1.1442,8.62361,-39.9279)">
        <g>
            <g>
                <g transform="matrix(1.03048,0,0,0.87763,-0.598269,-91.6659)">
                    <path d="M157.07,597.359C129.503,597.359 107.076,619.786 107.076,647.353C107.076,674.921 129.503,697.348 157.07,697.348C184.638,697.348 207.065,674.921 207.065,647.353C207.065,619.786 184.642,597.359 157.07,597.359ZM157.07,664.017C147.883,664.017 140.407,656.549 140.407,647.353C140.407,638.158 147.883,630.69 157.07,630.69C166.258,630.69 173.734,638.158 173.734,647.353C173.734,656.549 166.258,664.017 157.07,664.017Z" style="fill-rule:nonzero;"/>
                </g>
                <g transform="matrix(1,0,0,1,-1.34963,-177)">
                    <path d="M757.796,416.631C724.379,383.215 719.635,368.921 730.667,346.234C740.985,325.016 748.327,320.327 765.303,309.327C773.028,304.322 781.967,301.871 781.967,292.663C781.967,283.455 774.33,274.201 765.303,276C740.218,281 724.647,295.729 700.275,332.55C672.911,373.89 699.84,401.449 732.848,438.735C761.148,470.703 770.263,470.212 755.915,510.423C742.599,547.733 695.344,558.689 687.063,560.349C658.164,494.177 590.495,433.38 439.236,433.38C392.848,433.38 340.336,443.077 286.513,461.534C265.709,417.497 225.687,391.929 186.662,399.53C161.923,404.331 141.435,421.338 128.977,447.44C117.316,471.851 114.078,501.648 119.846,531.333C120.676,535.611 121.691,539.877 122.889,544.058C50.136,594.311 7.083,647.576 7.083,687.873C7.083,786.413 181.133,800 369.215,800C550.469,800 707.001,800 707.001,663.576C707.001,642.278 704.852,617.41 698.101,592.045C717.338,587.507 769.539,570.957 787.218,521.861C806.35,468.742 791.213,450.048 757.796,416.631ZM369.223,766.673C228.071,766.673 40.422,758.501 40.422,687.873C40.422,663.236 74.89,615.585 151.886,564.696L163.057,557.305L158.248,544.807C155.808,538.46 153.897,531.79 152.578,524.982C148.162,502.247 150.461,479.804 159.062,461.805C166.857,445.481 178.915,434.966 193.024,432.234C195.432,431.761 197.857,431.534 200.297,431.534C224.7,431.534 249.98,454.366 261.269,487.923L266.753,504.214L282.874,498.224C338.329,477.606 392.399,466.702 439.244,466.702C633.013,466.706 673.678,573.758 673.678,663.572C673.678,761.889 563.664,766.673 369.223,766.673Z" style="fill-rule:nonzero;stroke:black;stroke-width:18.86px;"/>
                </g>
            </g>
        </g>
    </g>
</svg>
