<?xml version="1.0" encoding="UTF-8" standalone="no"?>
<!DOCTYPE svg PUBLIC "-//W3C//DTD SVG 1.1//EN" "http://www.w3.org/Graphics/SVG/1.1/DTD/svg11.dtd">
<svg width="100%" height="100%" viewBox="0 0 640 512" version="1.1" xmlns="http://www.w3.org/2000/svg" xmlns:xlink="http://www.w3.org/1999/xlink" xml:space="preserve" xmlns:serif="http://www.serif.com/" style="fill-rule:evenodd;clip-rule:evenodd;stroke-linejoin:round;stroke-miterlimit:2;">
    <path d="M48,48L136,48C149.3,48 160,37.3 160,24C160,10.7 149.3,0 136,0L32,0C14.3,0 0,14.3 0,32L0,136C0,149.3 10.7,160 24,160C37.3,160 48,149.3 48,136L48,48ZM504,48L592,48L592,136C592,149.3 602.7,160 616,160C629.3,160 640,149.3 640,136L640,32C640,14.3 625.7,0 608,0L504,0C490.7,0 480,10.7 480,24C480,37.3 490.7,48 504,48ZM48,464L48,376C48,362.7 37.3,352 24,352C10.7,352 0,362.7 0,376L0,480C0,497.7 14.3,512 32,512L136,512C149.3,512 160,501.3 160,488C160,474.7 149.3,464 136,464L48,464ZM504,464C490.7,464 480,474.7 480,488C480,501.3 490.7,512 504,512L608,512C625.7,512 640,497.7 640,480L640,376C640,362.7 629.3,352 616,352C602.7,352 592,362.7 592,376L592,464L504,464Z" style="fill-rule:nonzero;"/>
</svg>
