<?xml version="1.0" encoding="UTF-8" standalone="no"?>
<!-- Created with Inkscape (http://www.inkscape.org/) -->

<svg
   version="1.1"
   id="svg1"
   width="682.66669"
   height="682.66669"
   viewBox="0 0 682.66669 682.66669"
   sodipodi:docname="favicon.svg"
   inkscape:export-filename="favicon-48x48.png"
   inkscape:export-xdpi="6.75"
   inkscape:export-ydpi="6.75"
   inkscape:version="1.4.3 (0d15f75042, 2025-12-25)"
   xmlns:inkscape="http://www.inkscape.org/namespaces/inkscape"
   xmlns:sodipodi="http://sodipodi.sourceforge.net/DTD/sodipodi-0.dtd"
   xmlns:xlink="http://www.w3.org/1999/xlink"
   xmlns="http://www.w3.org/2000/svg"
   xmlns:svg="http://www.w3.org/2000/svg">
  <defs
     id="defs1">
    <linearGradient
       id="linearGradient3"
       inkscape:collect="always">
      <stop
         style="stop-color:#6d6d6d;stop-opacity:1;"
         offset="0"
         id="stop3" />
      <stop
         style="stop-color:#000000;stop-opacity:0.14090464;"
         offset="1"
         id="stop4" />
    </linearGradient>
    <linearGradient
       inkscape:collect="always"
       xlink:href="#linearGradient3"
       id="linearGradient4"
       x1="341.36185"
       y1="111.09999"
       x2="341.36185"
       y2="566.07355"
       gradientUnits="userSpaceOnUse"
       gradientTransform="matrix(1.1812608,0,0,1.1812608,-61.875534,-61.372527)" />
  </defs>
  <sodipodi:namedview
     id="namedview1"
     pagecolor="#505050"
     bordercolor="#eeeeee"
     borderopacity="1"
     inkscape:showpageshadow="0"
     inkscape:pageopacity="0"
     inkscape:pagecheckerboard="0"
     inkscape:deskcolor="#505050"
     inkscape:zoom="0.62303425"
     inkscape:cx="54.571639"
     inkscape:cy="259.21528"
     inkscape:window-width="2648"
     inkscape:window-height="1412"
     inkscape:window-x="0"
     inkscape:window-y="0"
     inkscape:window-maximized="1"
     inkscape:current-layer="g1">
    <inkscape:page
       x="0"
       y="0"
       width="682.66669"
       height="682.66669"
       id="page2"
       margin="0"
       bleed="0" />
  </sodipodi:namedview>
  <g
     inkscape:groupmode="layer"
     inkscape:label="Image"
     id="g1">
    <path
       style="fill:#e3e2db;stroke-width:0.950949"
       d="M 329.83106,660.70402 C 304.41988,656.75239 248.2422,623.32046 206.83001,587.50484 125.3268,517.01616 68.293823,410.54576 46.709973,288.58924 38.491779,242.15351 35.636341,192.56099 40.176038,175.10975 45.195349,155.81492 61.434926,134.89785 78.239885,126.08238 82.424029,123.88748 140.62188,98.788204 207.56842,70.30621 L 329.28944,18.520771 c 0,0 7.9293,-2.71736 12.0453,-2.71736 4.116,0 12.04531,2.71736 12.04531,2.71736 l 121.721,51.785439 c 66.94655,28.481994 125.1444,53.58127 129.32856,55.77617 16.80496,8.81547 33.04453,29.73254 38.06383,49.02737 5.89279,22.65266 -0.50042,92.72763 -13.39778,146.85095 -31.95747,134.10839 -103.77254,240.25755 -206.65466,305.45417 -19.62656,12.43739 -46.10767,26.3845 -56.67774,29.8511 -11.20391,3.67449 -25.57161,5.0492 -35.9322,3.43805 z"
       id="path1"
       sodipodi:nodetypes="sssssscscsssssss" />
    <path
       style="display:inline;fill:url(#linearGradient4);fill-opacity:1;stroke-width:0.842422"
       d="M 331.14697,623.97128 C 308.63578,620.47061 258.86916,590.85399 222.18302,559.12571 149.98109,496.68132 99.45683,402.3615 80.336163,294.32288 c -7.280324,-41.1364 -9.809899,-85.06934 -5.788261,-100.529 4.44649,-17.09288 18.832782,-35.62285 33.719918,-43.43228 3.70665,-1.94442 55.26287,-24.17933 114.56935,-49.41091 L 330.66716,55.075106 c 0,0 7.02027,-2.462922 10.67068,-2.462922 3.6504,-10e-7 10.67068,2.462922 10.67068,2.462922 l 107.82997,45.875584 c 59.3065,25.23158 110.86271,47.46649 114.56936,49.41091 14.88715,7.80943 29.27343,26.3394 33.71992,43.43228 5.2203,20.06749 -0.44332,82.14539 -11.8688,130.09205 -28.31042,118.80371 -91.92984,212.83894 -183.07088,270.59521 -17.38672,11.01801 -40.84577,23.37344 -50.20957,26.44444 -9.92529,3.25514 -22.65333,4.47297 -31.83155,3.0457 z"
       id="path2"
       sodipodi:nodetypes="sssssscscsssssss" />
    <g
       id="g3"
       transform="matrix(1.1812608,0,0,1.1812608,640.1926,-92.263536)"
       style="display:inline;fill:#e3e2db">
      <g
         id="g2"
         transform="translate(-72.227169,4.8151441)"
         style="fill:#e3e2db">
        <path
           style="fill:#e3e2db;fill-opacity:1;stroke-width:0.970492"
           d="m -146.76374,503.21707 c 42.59378,-12.77653 74.043609,-44.83027 86.529529,-88.19109 2.94507,-10.22755 2.97318,-11.0391 3.38284,-97.65754 0.2272,-48.03937 0.0735,-88.7041 -0.34169,-90.36607 -2.17668,-8.71453 -14.97624,-12.41497 -21.9976,-6.35965 -1.85677,1.60131 -15.42761,18.91104 -30.157409,38.46607 -18.05044,23.96346 -28.25794,36.40812 -31.31042,38.17269 -4.14135,2.39402 -7.21087,2.6544 -35.86535,3.04224 -37.44003,0.50674 -43.19788,-0.33316 -49.79875,-7.26427 -2.51723,-2.64318 -15.99626,-20.06443 -29.95339,-38.71389 -13.95713,-18.64946 -26.51433,-34.51701 -27.90489,-35.26122 -4.22689,-2.26215 -12.38035,-1.60559 -16.06626,1.29374 -1.8507,1.45575 -3.96401,4.80395 -4.69625,7.44044 -1.74454,6.28134 -1.7554,150.56 -0.0126,167.18928 5.27748,50.35567 37.88635,91.35739 84.87506,106.72013 15.4205,5.04167 21.06892,5.74537 42.54372,5.30017 16.47737,-0.34158 21.12668,-0.91737 30.77345,-3.81103 z m -95.80825,-103.02633 c -16.832,-10.26258 -9.63584,-36.22901 10.04024,-36.22901 11.04054,0 19.40017,8.35963 19.40017,19.40017 0,11.04053 -8.35963,19.40016 -19.40017,19.40016 -3.53284,0 -7.48157,-1.01127 -10.04024,-2.57132 z m 103.51916,0 c -16.83199,-10.26258 -9.63584,-36.22901 10.04025,-36.22901 11.04053,0 19.40017,8.35963 19.40017,19.40017 0,11.04053 -8.35964,19.40016 -19.40017,19.40016 -3.53284,0 -7.48157,-1.01127 -10.04025,-2.57132 z"
           id="path2-3"
           sodipodi:nodetypes="ssscssssssssssssssssssssssss" />
        <path
           style="fill:#e3e2db;fill-opacity:1;stroke-width:0.970492"
           d="m -146.76374,503.21707 c 42.59378,-12.77653 74.043609,-44.83027 86.529529,-88.19109 2.94507,-10.22755 2.97318,-11.0391 3.38284,-97.65754 0.2272,-48.03937 0.0735,-88.7041 -0.34169,-90.36607 -2.17668,-8.71453 -14.97624,-12.41497 -21.9976,-6.35965 -1.85677,1.60131 -15.42761,18.91104 -30.157409,38.46607 -18.05044,23.96346 -28.25794,36.40812 -31.31042,38.17269 -4.14135,2.39402 -7.21087,2.6544 -35.86535,3.04224 -37.44003,0.50674 -43.19788,-0.33316 -49.79875,-7.26427 -2.51723,-2.64318 -15.99626,-20.06443 -29.95339,-38.71389 -13.95713,-18.64946 -26.51433,-34.51701 -27.90489,-35.26122 -4.22689,-2.26215 -12.38035,-1.60559 -16.06626,1.29374 -1.8507,1.45575 -3.96401,4.80395 -4.69625,7.44044 -1.74454,6.28134 -1.7554,150.56 -0.0126,167.18928 5.27748,50.35567 37.88635,91.35739 84.87506,106.72013 15.4205,5.04167 21.06892,5.74537 42.54372,5.30017 16.47737,-0.34158 21.12668,-0.91737 30.77345,-3.81103 z m -95.80825,-103.02633 c -16.832,-10.26258 -9.63584,-36.22901 10.04024,-36.22901 11.04054,0 19.40017,8.35963 19.40017,19.40017 0,11.04053 -8.35963,19.40016 -19.40017,19.40016 -3.53284,0 -7.48157,-1.01127 -10.04024,-2.57132 z m 103.51916,0 c -16.83199,-10.26258 -9.63584,-36.22901 10.04025,-36.22901 11.04053,0 19.40017,8.35963 19.40017,19.40017 0,11.04053 -8.35964,19.40016 -19.40017,19.40016 -3.53284,0 -7.48157,-1.01127 -10.04025,-2.57132 z"
           id="path2-3-2"
           sodipodi:nodetypes="ssscssssssssssssssssssssssss" />
      </g>
    </g>
  </g>
</svg>
